# AST/ASF file generated using VICON BodyLanguage
# -----------------------------------------------
:version 1.10
:name VICON
:units
  mass 1.0
  length 0.45
  angle deg
:documentation
   .ast/.asf automatically generated from VICON data using
   VICON BodyBuilder and BodyLanguage model FoxedUp or BRILLIANT.MOD
:root
   order TX TY TZ RX RY RZ
   axis XYZ
   position 0 0 0  
   orientation 0 0 0 
:bonedata
  begin
     id 1 
     name lhipjoint
     direction 0.734343 -0.627749 0.258209 
     length 2.5437 
     axis 0 0 0  XYZ
  end
  begin
     id 2 
     name lfemur
     direction 0.34202 -0.939693 0  
     length 6.7391  
     axis 0 0 20  XYZ
    dof rx ry rz
    limits (-160.0 20.0)
           (-70.0 70.0)
           (-60.0 70.0)
  end
  begin
     id 3 
     name ltibia
     direction 0.34202 -0.939693 0   
     length 7.21536   
     axis 0 0 20   XYZ
    dof rx
    limits (-10.0 170.0)
  end
  begin
     id 4 
     name lfoot
     direction 0.0489572 -0.134509 0.989702   
     length 1.61313   
     axis -90 7.62852e-016 20   XYZ
    dof rx rz
    limits (-45.0 90.0)
           (-70.0 20.0)
  end
  begin
     id 5 
     name ltoes
     direction 1.53451e-011 -4.21692e-011 1   
     length 0.823104   
     axis -90 7.62852e-016 20   XYZ
    dof rx
    limits (-90.0 20.0)
  end
  begin
     id 6 
     name rhipjoint
     direction -0.746398 -0.615468 0.253157   
     length 2.59446  
     axis 0 0 0  XYZ 
  end
  begin
     id 7 
     name rfemur
     direction -0.34202 -0.939693 0   
     length 6.7075   
     axis 0 0 -20   XYZ
    dof rx ry rz
    limits (-160.0 20.0)
           (-70.0 70.0)
           (-70.0 60.0)
  end
  begin
     id 8 
     name rtibia
     direction -0.34202 -0.939693 0   
     length 7.27262   
     axis 0 0 -20   XYZ
    dof rx
    limits (-10.0 170.0)
 end
 begin
     id 9 
     name rfoot
     direction -0.0455203 -0.125066 0.991104   
     length 1.91095  
     axis -90 -7.62852e-016 -20   XYZ
    dof rx rz
    limits (-45.0 90.0)
           (-20.0 70.0)
  end
  begin
     id 10 
     name rtoes
     direction -1.53601e-011 -4.21913e-011 1   
     length 0.969037   
     axis -90 -7.62852e-016 -20   XYZ
    dof rx
    limits (-90.0 20.0)
  end
  begin
     id 11 
     name lowerback
     direction 0.0181546 0.999122 -0.0377542   
     length 1.99916   
     axis 0 0 0   XYZ
    dof rx ry rz
    limits (-20.0 45.0)
           (-30.0 30.0)
           (-30.0 30.0)
  end
  begin
     id 12 
     name upperback
     direction 0.0203486 0.99589 0.0882534   
     length 1.951   
     axis 0 0 0   XYZ
    dof rx ry rz
    limits (-20.0 45.0)
           (-30.0 30.0)
           (-30.0 30.0)
  end
  begin
     id 13 
     name thorax
     direction 0.0131685 0.994241 0.106355   
     length 1.97461   
     axis 0 0 0   XYZ
    dof rx ry rz
    limits (-20.0 45.0)
           (-30.0 30.0)
           (-30.0 30.0)
  end
  begin
     id 14 
     name lowerneck
     direction -0.0281395 0.999325 0.023617   
     length 1.7959   
     axis 0 0 0   XYZ
    dof rx ry rz
    limits (-20.0 45.0)
           (-30.0 30.0)
           (-30.0 30.0)
  end
  begin
     id 15 
     name upperneck
     direction 0.0288721 0.991984 -0.123019   
     length 1.79917   
     axis 0 0 0   XYZ
    dof rx ry rz
    limits (-20.0 45.0)
           (-30.0 30.0)
           (-30.0 30.0)
  end
  begin
     id 16
     name head
     direction 0.0133797 0.998944 -0.0439492  
     length 1.80902  
     axis 0 0 0   XYZ
    dof rx ry rz
    limits (-20.0 45.0)
           (-30.0 30.0)
           (-30.0 30.0)
  end
  begin
     id 17 
     name lclavicle
     direction 0.919195 0.377107 0.113449  
     length 3.17815  
     axis 0 0 0   XYZ
    dof ry rz
    limits (-20.0 10.0)
           (0.0 20.0)
  end
  begin
     id 18 
     name lhumerus
     direction 1 -4.48959e-011 2.13129e-027   
     length 4.84137   
     axis 180 -30 -90   XYZ
    dof rx ry rz
    limits (-60.0 90.0)
           (-90.0 90.0)
           (-90.0 90.0)
  end
  begin
     id 19
     name lradius
     direction 1 -4.48957e-011 -6.30627e-028   
     length 3.2452   
     axis 180 -30 -90   XYZ
    dof rx
    limits (-10.0 170.0)
  end
  begin
     id 20
     name lwrist
     direction 1 -4.4901e-011 9.13299e-027   
     length 1.6226   
     axis -6.84618e-015 90 90   XYZ
    dof ry
    limits (-180.0 0.0)
 end
  begin
     id 21 
     name lhand
     direction 1 -4.48816e-011 1.82293e-026   
     length 0.521221   
     axis -1.16502e-014 90 90   XYZ
    dof rx rz
    limits (-90.0 90.0)
           (-45.0 45.0)
  end
  begin
     id 22 
     name lfingers
     direction 1 -4.49108e-011 3.65687e-026   
     length 0.420221   
     axis -2.33008e-014 90 90   XYZ
    dof rx
    limits (0.0 90.0)
  end
  begin
     id 23
     name lthumb
     direction 0.707107 -6.34943e-011 0.707107   
     length 0.603356   
     axis -90 45 5.69224e-014   XYZ
    dof rx rz
    limits (-45.0 45.0)
           (-45.0 45.0)
  end
  begin
     id 24 
     name rclavicle
     direction -0.90847 0.38596 0.160368   
     length 3.12973  
     axis 0 0 0   XYZ 
    dof ry rz
    limits (-10.0 20.0)
           (-20.0 0.0)
  end
  begin
     id 25 
     name rhumerus
     direction -1 -4.48974e-011 4.47268e-028  
     length 4.72284   
     axis 180 30 90   XYZ
    dof rx ry rz
    limits (-90.0 60.0)
           (-90.0 90.0)
           (-90.0 90.0)
  end
  begin
     id 26 
     name rradius
     direction -1 -4.48969e-011 3.43203e-027   
     length 3.23459   
     axis 180 30 90   XYZ
    dof rx
    limits (-10.0 170.0)
  end
  begin
     id 27 
     name rwrist
     direction -1 -4.48969e-011 9.12911e-027   
     length 1.6173   
     axis -6.84618e-015 -90 -90   XYZ
    dof ry
    limits (-180.0 0.0)
  end
  begin
     id 28
     name rhand
     direction -1 -4.49194e-011 1.83006e-026   
     length 0.307416   
     axis -1.16502e-014 -90 -90   XYZ
    dof rx rz
    limits (-90.0 90.0)
           (-45.0 45.0)
  end
  begin
     id 29
     name rfingers
     direction -1 -4.48423e-011 3.63103e-026   
     length 0.247847   
     axis -2.33008e-014 -90 -90   XYZ
    dof rx
    limits (0.0 90.0)
  end
  begin
     id 30
     name rthumb
     direction -0.707107 -6.34802e-011 0.707107   
     length 0.35586   
     axis -90 -45 -5.69224e-014   XYZ
    dof rx rz
    limits (-45.0 45.0)
           (-45.0 45.0)
  end
:hierarchy
  begin
    root lhipjoint rhipjoint lowerback
    lhipjoint lfemur
    lfemur ltibia
    ltibia lfoot
    lfoot ltoes
    rhipjoint rfemur
    rfemur rtibia
    rtibia rfoot
    rfoot rtoes
    lowerback upperback
    upperback thorax
    thorax lowerneck lclavicle rclavicle
    lowerneck upperneck
    upperneck head
    lclavicle lhumerus
    lhumerus lradius
    lradius lwrist
    lwrist lhand lthumb
    lhand lfingers
    rclavicle rhumerus
    rhumerus rradius
    rradius rwrist
    rwrist rhand rthumb
    rhand rfingers
  end

#!OML:ASF H:\Terrain\Patient Classification 1\Animal1\Tuesday\Animal1.ASF
:FULLY-SPECIFIED
:DEGREES
434
root 8.8244 16.716 -3.47588 6.48789 -2.55356 2.18596
lowerback 0.0503303 -1.50917 -1.82691
upperback 4.65872 -1.96522 -0.122559
thorax 4.83634 -1.05007 0.812706
lowerneck -9.48247 -1.35905 -8.5037
upperneck 3.52577 -1.30842 8.72533
head 2.7035 -0.443437 3.97134
rclavicle -3.29983e-014 4.67144e-015
rhumerus -0.328341 -48.3725 -32.9211
rradius 65.5264
rwrist -48.2189
rhand -22.7121 33.7456
rfingers 7.12502
rthumb 3.7211 3.79834
lclavicle -3.29983e-014 4.67144e-015
lhumerus -13.1183 42.5949 29.9036
lradius 79.1449
lwrist 9.43142
lhand -9.7405 55.9107
lfingers 7.12502
lthumb 16.2335 85.2511
rfemur -20.2039 10.4594 17.293
rtibia 27.2627
rfoot -12.4237 -29.7921
rtoes 18.855
lfemur -14.8541 -6.78024 -18.9401
ltibia 17.0945
lfoot -8.76946 18.5478
ltoes -2.23301
435
root 8.82291 16.7141 -3.4718 6.48608 -2.51243 2.11406
lowerback 0.0218504 -1.51873 -1.75802
upperback 4.67256 -1.97992 -0.102911
thorax 4.86562 -1.05526 0.792797
lowerneck -9.61181 -1.37301 -8.53418
upperneck 3.72743 -1.32006 8.66394
head 2.78533 -0.448977 3.95759
rclavicle -1.73191e-014 1.74434e-014
rhumerus -0.326662 -48.4492 -32.9103
rradius 65.5411
rwrist -48.0615
rhand -24.0637 34.3898
rfingers 7.12502
rthumb 2.41585 4.42373
lclavicle -1.73191e-014 1.74434e-014
lhumerus -12.8691 42.7947 30.0994
lradius 79.0183
lwrist 9.36823
lhand -9.7109 55.8754
lfingers 7.12502
lthumb 16.262 85.2135
rfemur -20.1074 10.4796 17.3928
rtibia 27.1597
rfoot -12.1186 -29.9428
rtoes 18.4247
lfemur -14.9165 -6.77879 -18.8568
ltibia 17.2547
lfoot -8.93459 18.5119
ltoes -1.55405
436
root 8.8218 16.7134 -3.47054 6.41528 -2.50445 2.21711
lowerback 0.0611262 -1.52441 -1.87012
upperback 4.69263 -1.98399 -0.13195
thorax 4.86763 -1.0614 0.825979
lowerneck -9.62442 -1.40011 -8.57585
upperneck 3.89254 -1.35134 8.5544
head 2.83864 -0.469041 3.92946
rclavicle -3.00662e-014 7.90169e-015
rhumerus -0.286453 -48.5391 -32.9404
rradius 65.527
rwrist -47.961
rhand -24.8397 34.8409
rfingers 7.12502
rthumb 1.66634 4.86766
lclavicle -3.00662e-014 7.90169e-015
lhumerus -12.6812 42.9279 30.2056
lradius 78.9068
lwrist 9.34551
lhand -9.68149 55.7686
lfingers 7.12502
lthumb 16.2903 85.1043
rfemur -19.9534 10.5039 17.295
rtibia 27.0297
rfoot -12.2159 -29.9873
rtoes 18.5419
lfemur -14.917 -6.78591 -18.9768
ltibia 17.4214
lfoot -8.99643 18.522
ltoes -1.57952
437
root 8.81855 16.7163 -3.46637 6.30309 -2.50506 2.11131
lowerback 0.0871342 -1.51551 -1.75469
upperback 4.78498 -1.9757 -0.113932
thorax 4.94571 -1.05409 0.779537
lowerneck -9.68815 -1.41659 -8.71869
upperneck 3.97738 -1.35569 8.56943
head 2.87577 -0.471535 3.95781
rclavicle -2.01269e-015 -3.47873e-016
rhumerus -0.212577 -48.4662 -32.8985
rradius 65.4404
rwrist -47.8728
rhand -25.0181 35.2864
rfingers 7.12502
rthumb 1.49406 5.31192
lclavicle -2.01269e-015 -3.47873e-016
lhumerus -12.485 42.9793 30.3087
lradius 78.8971
lwrist 9.41618
lhand -9.59784 55.8956
lfingers 7.12502
lthumb 16.3709 85.2247
rfemur -19.759 10.4941 17.4485
rtibia 26.8918
rfoot -11.9922 -30.0736
rtoes 18.6143
lfemur -14.8499 -6.74774 -18.8685
ltibia 17.5855
lfoot -9.15264 18.4562
ltoes -1.56966
438
root 8.81415 16.7192 -3.46088 6.29834 -2.52114 1.76791
lowerback 0.0352289 -1.49426 -1.40858
upperback 4.84989 -1.95886 -0.0313896
thorax 5.03299 -1.03395 0.669623
lowerneck -9.82286 -1.37487 -8.69272
upperneck 4.03875 -1.28932 8.47601
head 2.90912 -0.439064 3.92849
rclavicle 1.19271e-015 1.83379e-014
rhumerus -0.208795 -48.2994 -32.729
rradius 65.3656
rwrist -47.963
rhand -22.947 34.557
rfingers 7.12502
rthumb 3.49426 4.60588
lclavicle 1.19271e-015 1.83379e-014
lhumerus -12.3246 43.0045 30.3828
lradius 78.8959
lwrist 9.4809
lhand -9.3162 56.0366
lfingers 7.12502
lthumb 16.642 85.3431
rfemur -19.6855 10.573 17.8413
rtibia 26.771
rfoot -11.6538 -30.1261
rtoes 18.7924
lfemur -14.8791 -6.67173 -18.4828
ltibia 17.7239
lfoot -9.27588 18.4179
ltoes -1.60424
439
root 8.80943 16.7223 -3.45817 6.38492 -2.58917 1.68165
lowerback -0.0550206 -1.42582 -1.34477
upperback 4.79255 -1.86972 0.00549143
thorax 5.02107 -0.987402 0.674628
lowerneck -9.67231 -1.36372 -8.56724
upperneck 3.97793 -1.28161 8.2167
head 2.86263 -0.446633 3.82737
rclavicle 2.11457e-014 -6.90777e-015
rhumerus -0.406832 -48.1728 -32.3065
rradius 65.2862
rwrist -48.11
rhand -17.6265 30.9925
rfingers 7.12502
rthumb 8.63075 1.18894
lclavicle 2.11457e-014 -6.90777e-015
lhumerus -12.1462 42.9117 30.5281
lradius 78.8028
lwrist 9.57066
lhand -9.14231 55.9103
lfingers 7.12502
lthumb 16.8094 85.2027
rfemur -19.7363 10.6293 17.9256
rtibia 26.6685
rfoot -11.5986 -30.024
rtoes 19.0166
lfemur -14.9776 -6.6534 -18.3535
ltibia 17.8265
lfoot -9.67391 18.3495
ltoes 0.44715
440
root 8.80499 16.7255 -3.45656 6.46366 -2.61905 1.75615
lowerback -0.152293 -1.34851 -1.39339
upperback 4.6831 -1.76427 0.0089427
thorax 4.96086 -0.936142 0.70946
lowerneck -9.27289 -1.39491 -8.64639
upperneck 3.89909 -1.33419 8.11832
head 2.77821 -0.485851 3.80666
rclavicle 7.65321e-015 -2.28602e-015
rhumerus -0.703225 -48.0952 -31.8143
rradius 65.2009
rwrist -48.0129
rhand -12.5753 26.4472
rfingers 7.12502
rthumb 13.5026 -3.09503
lclavicle 7.65321e-015 -2.28602e-015
lhumerus -11.9095 42.6627 30.743
lradius 78.6682
lwrist 9.76573
lhand -9.60437 55.9533
lfingers 7.12502
lthumb 16.3646 85.2829
rfemur -19.8132 10.5669 17.8464
rtibia 26.6443
rfoot -11.7207 -29.8809
rtoes 19.5775
lfemur -15.038 -6.72921 -18.3922
ltibia 17.8406
lfoot -9.94366 18.2645
ltoes 1.86878
441
root 8.80221 16.7227 -3.45283 6.41226 -2.5796 1.78802
lowerback -0.1317 -1.32231 -1.38522
upperback 4.64811 -1.73009 0.0122271
thorax 4.9114 -0.918457 0.71095
lowerneck -9.00879 -1.41511 -8.82408
upperneck 3.88941 -1.36472 8.18954
head 2.73677 -0.506434 3.85634
rclavicle 2.48481e-016 5.86415e-015
rhumerus -0.698629 -48.2602 -31.7189
rradius 65.0811
rwrist -47.5562
rhand -11.3413 25.8199
rfingers 7.12502
rthumb 14.6917 -3.63957
lclavicle 2.48481e-016 5.86415e-015
lhumerus -11.7711 42.3528 30.8237
lradius 78.6885
lwrist 10.1246
lhand -10.1198 56.3713
lfingers 7.12502
lthumb 15.8683 85.7411
rfemur -19.7729 10.5006 17.842
rtibia 26.725
rfoot -11.7849 -29.8455
rtoes 19.5548
lfemur -14.9669 -6.79166 -18.429
ltibia 17.7786
lfoot -9.47414 18.4088
ltoes -0.49032
442
root 8.7987 16.7178 -3.45057 6.30788 -2.58516 1.95212
lowerback -0.0249161 -1.3171 -1.57783
upperback 4.64707 -1.7178 -0.0299747
thorax 4.85416 -0.919041 0.77826
lowerneck -8.84914 -1.4208 -8.82726
upperneck 3.85951 -1.37881 8.11886
head 2.70245 -0.519302 3.8342
rclavicle -6.85807e-015 3.57812e-015
rhumerus -0.661463 -48.3535 -31.7221
rradius 65.0615
rwrist -47.4157
rhand -12.0247 27.0131
rfingers 7.12502
rthumb 14.0332 -2.4932
lclavicle -6.85807e-015 3.57812e-015
lhumerus -11.6945 42.1914 30.8122
lradius 78.8075
lwrist 10.2483
lhand -9.91307 56.6388
lfingers 7.12502
lthumb 16.0674 85.9927
rfemur -19.7147 10.4928 17.6989
rtibia 26.8212
rfoot -11.6912 -29.9587
rtoes 18.6874
lfemur -14.842 -6.83642 -18.6187
ltibia 17.7213
lfoot -9.14582 18.5956
ltoes -2.0219
443
root 8.7924 16.7157 -3.45005 6.33026 -2.62743 1.96706
lowerback -0.0223543 -1.29892 -1.67863
upperback 4.60647 -1.69109 -0.0309896
thorax 4.8127 -0.909347 0.835417
lowerneck -8.64407 -1.44602 -8.75771
upperneck 3.73615 -1.42089 7.94839
head 2.63381 -0.549226 3.76762
rclavicle -4.67144e-014 7.55382e-015
rhumerus -0.849553 -48.2032 -31.5216
rradius 65.1866
rwrist -47.7557
rhand -10.1554 24.0461
rfingers 7.12502
rthumb 15.834 -5.3264
lclavicle -4.67144e-014 7.55382e-015
lhumerus -11.6952 42.1066 30.7423
lradius 78.9189
lwrist 10.116
lhand -9.60304 56.6519
lfingers 7.12502
lthumb 16.3659 85.9814
rfemur -19.7788 10.5318 17.707
rtibia 26.869
rfoot -11.7002 -30.0317
rtoes 18.4964
lfemur -14.8585 -6.80946 -18.6076
ltibia 17.7124
lfoot -9.21488 18.6149
ltoes -1.93459
